<mxfile host="app.diagrams.net" modified="2023-07-17T14:20:45.262Z" agent="Mozilla/5.0 (Macintosh; Intel Mac OS X 10_15_7) AppleWebKit/537.36 (KHTML, like Gecko) Chrome/114.0.0.0 Safari/537.36" version="21.6.2" etag="_VA2FO5Zt9HFiOlMr1Am" type="github">
  <diagram name="Page-1" id="0Z9Dkei-GEiVMVAavsv1">
    <mxGraphModel>
      <root>
        <mxCell id="0" />
        <mxCell id="1" parent="0" />
      </root>
    </mxGraphModel>
  </diagram>
</mxfile>
